<?xml version="1.0" encoding="utf-8"?>
<svg viewBox="70 0 560.006 560.001" width="560.006pt" height="560.001pt" xmlns="http://www.w3.org/2000/svg">
  <path d="M 596.42 488.93 C 593.572 494.414 588.889 498.727 583.186 501.114 L 606.334 542.501 L 93.674 542.501 L 115.697 503.126 L 113.756 503.126 C 108.252 503.126 102.885 501.38 98.432 498.145 L 71.12 546.978 C 69.604 549.688 69.639 552.997 71.209 555.677 C 72.78 558.356 75.651 560.001 78.756 560.001 L 621.256 560.001 C 624.362 560.001 627.233 558.356 628.803 555.677 C 630.374 552.997 630.409 549.688 628.893 546.978 L 596.42 488.93 Z"/>
  <path d="M 621.25 0 L 78.75 0 C 73.918 0 70 3.918 70 8.75 L 70 272.62 C 70 277.452 73.918 281.37 78.75 281.37 C 83.582 281.37 87.5 277.452 87.5 272.62 L 87.5 17.5 L 126.875 17.5 L 126.875 35.246 C 123.359 35.82 120.106 37.453 117.539 39.922 C 114.973 42.391 113.219 45.578 112.512 49.07 L 107.266 75.316 C 106.235 80.457 107.566 85.789 110.891 89.843 C 114.215 93.897 119.18 96.249 124.422 96.249 L 146.828 96.249 C 152.07 96.249 157.035 93.898 160.359 89.843 C 163.683 85.789 165.011 80.46 163.984 75.32 L 158.734 49.07 L 158.738 49.07 C 158.027 45.582 156.273 42.391 153.71 39.922 C 151.144 37.453 147.89 35.82 144.374 35.246 L 144.374 17.5 L 555.624 17.5 L 555.624 35.246 C 552.109 35.82 548.855 37.453 546.289 39.922 C 543.722 42.391 541.968 45.578 541.261 49.07 L 536.015 75.316 C 534.984 80.457 536.316 85.789 539.64 89.843 C 542.964 93.897 547.929 96.249 553.171 96.249 L 575.577 96.249 C 580.819 96.249 585.784 93.898 589.108 89.843 C 592.432 85.789 593.76 80.46 592.733 75.32 L 587.483 49.07 L 587.487 49.07 C 586.776 45.582 585.022 42.391 582.46 39.922 C 579.893 37.453 576.639 35.82 573.124 35.246 L 573.124 17.5 L 612.499 17.5 L 612.499 271.25 C 612.499 276.082 616.417 280 621.249 280 C 626.081 280 629.999 276.082 629.999 271.25 L 629.999 8.75 C 629.999 3.918 626.081 0 621.249 0 L 621.25 0 Z M 146.85 78.75 L 124.428 78.75 L 129.678 52.5 L 141.584 52.5 L 146.85 78.75 Z M 575.6 78.75 L 553.178 78.75 L 558.428 52.5 L 570.334 52.5 L 575.6 78.75 Z"/>
  <path d="M 113.75 389.38 C 108.918 389.38 105 393.298 105 398.13 L 105 476.88 C 105 481.712 108.918 485.63 113.75 485.63 L 175 485.63 C 179.832 485.63 183.75 481.712 183.75 476.88 L 183.75 398.13 C 183.75 393.298 179.832 389.38 175 389.38 L 153.125 389.38 L 153.125 371.88 L 166.25 371.88 C 168.844 371.88 171.305 370.728 172.969 368.736 C 174.629 366.747 175.324 364.118 174.859 361.568 L 166.109 313.443 C 165.352 309.278 161.731 306.255 157.5 306.255 L 131.25 306.255 C 127.02 306.255 123.398 309.278 122.641 313.443 L 113.891 361.568 C 113.426 364.118 114.121 366.747 115.781 368.736 C 117.445 370.728 119.906 371.88 122.5 371.88 L 135.625 371.88 L 135.625 389.38 L 113.75 389.38 Z M 166.25 468.13 L 122.5 468.13 L 122.5 446.255 L 166.25 446.255 L 166.25 468.13 Z M 132.984 354.38 L 138.55 323.755 L 150.198 323.755 L 155.765 354.38 L 132.984 354.38 Z M 166.25 406.88 L 166.25 428.755 L 122.5 428.755 L 122.5 406.88 L 166.25 406.88 Z"/>
  <path d="M 494.38 100.62 L 205.63 100.62 C 200.989 100.624 196.544 102.472 193.263 105.753 C 189.982 109.034 188.134 113.479 188.13 118.12 L 188.13 240.62 C 188.134 245.26 189.982 249.706 193.263 252.987 C 196.544 256.268 200.99 258.116 205.63 258.12 L 494.38 258.12 C 499.021 258.116 503.466 256.268 506.747 252.987 C 510.028 249.706 511.876 245.26 511.88 240.62 L 511.88 118.12 C 511.876 113.479 510.028 109.034 506.747 105.753 C 503.466 102.472 499.02 100.624 494.38 100.62 L 494.38 100.62 Z M 215.02 240.62 L 288.895 171.702 L 361.415 240.62 L 215.02 240.62 Z M 386.79 240.62 C 386.743 240.573 386.708 240.515 386.657 240.468 L 360.134 215.261 L 406.154 171.757 L 478.076 240.62 L 386.79 240.62 Z M 412.243 153.362 C 408.872 150.139 403.567 150.12 400.177 153.323 L 347.431 203.186 L 294.982 153.338 C 291.626 150.15 286.369 150.127 282.982 153.283 L 205.63 225.447 L 205.63 118.117 L 494.38 118.117 L 494.392 232.007 L 412.243 153.362 Z"/>
  <path d="M 529.38 485.62 L 573.13 485.62 C 577.962 485.62 581.88 481.702 581.88 476.87 L 581.88 415.62 L 586.255 415.62 C 591.087 415.62 595.005 411.702 595.005 406.87 L 595.005 371.87 C 595.005 367.038 591.087 363.12 586.255 363.12 L 516.255 363.12 C 511.423 363.12 507.505 367.038 507.505 371.87 L 507.505 406.87 C 507.505 411.702 511.423 415.62 516.255 415.62 L 520.63 415.62 L 520.63 476.87 C 520.63 481.702 524.548 485.62 529.38 485.62 Z M 564.38 468.12 L 538.13 468.12 L 538.13 415.62 L 564.38 415.62 L 564.38 468.12 Z M 525.005 380.62 L 577.505 380.62 L 577.505 398.12 L 525.005 398.12 L 525.005 380.62 Z"/>
  <path d="M 459.38 485.62 C 464.212 485.62 468.13 481.702 468.13 476.87 L 468.13 468.12 L 490.005 468.12 C 494.837 468.12 498.755 464.202 498.755 459.37 L 498.755 424.37 C 498.747 419.296 497.271 414.335 494.505 410.081 C 491.739 405.827 487.802 402.468 483.165 400.405 C 486.298 393.71 486.45 386.003 483.587 379.19 C 480.72 372.378 475.106 367.092 468.13 364.651 L 468.13 301.87 C 468.122 294.909 465.353 288.237 460.435 283.315 C 455.513 278.397 448.841 275.628 441.88 275.62 L 258.13 275.62 C 251.169 275.628 244.497 278.397 239.575 283.315 C 234.657 288.237 231.887 294.909 231.879 301.87 L 231.879 364.651 C 224.903 367.093 219.289 372.378 216.422 379.19 C 213.559 386.003 213.711 393.71 216.844 400.405 C 212.207 402.468 208.27 405.827 205.504 410.081 C 202.739 414.335 201.262 419.296 201.254 424.37 L 201.254 459.37 C 201.254 464.202 205.172 468.12 210.004 468.12 L 231.879 468.12 L 231.879 476.87 C 231.879 481.702 235.797 485.62 240.629 485.62 C 245.461 485.62 249.379 481.702 249.379 476.87 L 249.379 468.12 L 450.629 468.12 L 450.629 476.87 C 450.629 481.702 454.547 485.62 459.379 485.62 L 459.38 485.62 Z M 249.38 301.87 C 249.384 297.038 253.298 293.124 258.13 293.12 L 441.88 293.12 C 446.712 293.124 450.626 297.038 450.63 301.87 L 450.63 363.12 L 428.755 363.12 L 428.755 336.87 C 428.755 332.038 424.837 328.12 420.005 328.12 L 367.505 328.12 C 362.673 328.12 358.755 332.038 358.755 336.87 L 358.755 363.12 L 341.255 363.12 L 341.255 336.87 C 341.255 332.038 337.337 328.12 332.505 328.12 L 280.005 328.12 C 275.173 328.12 271.255 332.038 271.255 336.87 L 271.255 363.12 L 249.38 363.12 L 249.38 301.87 Z M 411.26 345.62 L 411.26 363.12 L 376.26 363.12 L 376.26 345.62 L 411.26 345.62 Z M 323.76 345.62 L 323.76 363.12 L 288.76 363.12 L 288.76 345.62 L 323.76 345.62 Z M 240.635 380.62 L 459.385 380.62 C 464.217 380.62 468.135 384.538 468.135 389.37 C 468.135 394.202 464.217 398.12 459.385 398.12 L 240.635 398.12 C 235.803 398.12 231.885 394.202 231.885 389.37 C 231.885 384.538 235.803 380.62 240.635 380.62 Z M 218.76 450.62 L 218.76 424.37 C 218.764 419.538 222.678 415.624 227.51 415.62 L 472.51 415.62 C 477.342 415.624 481.256 419.538 481.26 424.37 L 481.26 450.62 L 218.76 450.62 Z"/>
</svg>